<svg xmlns="http://www.w3.org/2000/svg" xmlns:xlink="http://www.w3.org/1999/xlink" width="150" height="150" viewBox="0 0 150 150"><defs><linearGradient id="a" x1="0.5" x2="0.5" y2="1" gradientUnits="objectBoundingBox"><stop offset="0" stop-color="#00d056"/><stop offset="1" stop-color="#00ab47"/></linearGradient></defs><g transform="translate(9159 22860)"><rect width="150" height="150" rx="10" transform="translate(-9159 -22860)" fill="#dbdbdb" opacity="0.1"/><g transform="translate(-9103 -22825.33)"><path d="M33.143,172.971H5.251a2.344,2.344,0,0,1-2.288-1.837A139.4,139.4,0,0,1,0,141.579a139.389,139.389,0,0,1,2.963-29.554,2.344,2.344,0,0,1,2.288-1.837H33.143a2.345,2.345,0,0,1,2.288,1.837,139.389,139.389,0,0,1,2.963,29.554,139.4,139.4,0,0,1-2.963,29.555A2.344,2.344,0,0,1,33.143,172.971Zm0,0" transform="translate(0 -92.971)" fill="#fff"/><path d="M35.431,112.025a2.344,2.344,0,0,0-2.288-1.837H5.251a2.344,2.344,0,0,0-2.288,1.837A139.389,139.389,0,0,0,0,141.579a139.4,139.4,0,0,0,2.963,29.555,2.343,2.343,0,0,0,2.288,1.837H33.143a2.344,2.344,0,0,0,2.288-1.837,139.4,139.4,0,0,0,2.963-29.555A139.389,139.389,0,0,0,35.431,112.025Zm-5.971,50.57a2.344,2.344,0,0,1-2.344,2.344H11.278a2.344,2.344,0,0,1-2.344-2.344V123.633a2.344,2.344,0,0,1,2.344-2.344H27.116a2.344,2.344,0,0,1,2.344,2.344Zm0,0" transform="translate(0 -92.971)" fill="url(#a)"/><path d="M18.609,19.561V3.773A3.777,3.777,0,0,1,22.383,0H47.415a3.777,3.777,0,0,1,3.773,3.773V19.561Zm0,0" transform="translate(-15.702)" fill="#019c41"/><path d="M90.137,6.342h7.721a1.485,1.485,0,0,0,1.485-1.484V0H88.652V4.857A1.484,1.484,0,0,0,90.137,6.342Zm0,0" transform="translate(-74.8)" fill="url(#a)"/></g></g></svg>