<svg xmlns="http://www.w3.org/2000/svg" xmlns:xlink="http://www.w3.org/1999/xlink" width="100" height="100" viewBox="0 0 100 100"><defs><style>.a{fill:url(#a);}.b{fill:#4989f5;}.c{fill:url(#b);}.d,.h{fill:#3c4ba6;}.e{fill:#7babf7;}.f{fill:#3f51b5;}.g{fill:#709be0;}.g,.h{fill-rule:evenodd;}.i{fill:#fff;}</style><linearGradient id="a" x1="0.5" x2="0.5" y2="1" gradientUnits="objectBoundingBox"><stop offset="0" stop-color="#fdfafa"/><stop offset="1" stop-color="#e3e3e3"/></linearGradient><linearGradient id="b" y1="0.5" x2="1" y2="0.5" gradientUnits="objectBoundingBox"><stop offset="0.03" stop-color="#4079d8"/><stop offset="1" stop-color="#4989f5"/></linearGradient></defs><g transform="translate(-260 -2408)"><circle class="a" cx="50" cy="50" r="50" transform="translate(260 2408)"/><g transform="translate(287.5 2438)"><g transform="translate(0 0)"><rect class="b" width="40.099" height="29.984" rx="5" transform="translate(2.302 10.016)"/><path class="c" d="M92,227.75H55.955c-1.116,0-1.985,8.64-1.985,9.757l19.737,20.452H92a2.035,2.035,0,0,0,2.03-2.03V229.78A2.036,2.036,0,0,0,92,227.75Z" transform="translate(-51.645 -217.959)"/><path class="d" d="M266.03,15.477h11.457V.44h-9.742Z" transform="translate(-254.572 -0.44)"/><path class="e" d="M543.487,15.477H532.03V.44h9.741ZM551.516,3.29l.014.051C551.527,3.324,551.52,3.307,551.516,3.29Z" transform="translate(-509.115 -0.44)"/><path class="f" d="M767.959,3.332l-.014-.051A3.624,3.624,0,0,0,764.407.43H758.2l1.714,15.038h11.457Z" transform="translate(-725.543 -0.43)"/><path class="e" d="M79.294,66.62l-.014.051C79.283,66.653,79.29,66.636,79.294,66.62Z" transform="translate(-75.865 -63.769)"/><path class="e" d="M3.414,3.332l.014-.051A3.624,3.624,0,0,1,6.966.43h6.207L11.457,15.468H0Z" transform="translate(0 -0.43)"/></g><path class="g" d="M12.081,349.47a5.725,5.725,0,1,1-11.451,0Z" transform="translate(-0.603 -334.436)"/><path class="h" d="M277.931,349.47a5.725,5.725,0,1,1-11.451,0Z" transform="translate(-255.002 -334.436)"/><path class="g" d="M543.781,349.47a5.725,5.725,0,0,1-11.451,0Z" transform="translate(-509.402 -334.436)"/><path class="h" d="M809.6,349.47a5.725,5.725,0,1,1-11.451,0Z" transform="translate(-763.773 -334.436)"/><path class="i" d="M642.513,572.369c-.02-.273-.054-.522-.1-.839h-6.245c0,.873,0,1.827,0,2.7h3.618a3.146,3.146,0,0,1-1.324,2.02s0-.015,0-.016a3.791,3.791,0,0,1-1.464.572,4.3,4.3,0,0,1-1.585-.007,3.959,3.959,0,0,1-1.478-.64,4.124,4.124,0,0,1-1.453-1.856c-.022-.058-.043-.117-.064-.176v-.006l.005,0a4.007,4.007,0,0,1,0-2.577,4.148,4.148,0,0,1,.961-1.563,3.9,3.9,0,0,1,3.933-1.024,3.574,3.574,0,0,1,1.431.843l1.221-1.221c.215-.217.439-.428.646-.653a6.451,6.451,0,0,0-2.138-1.324,6.723,6.723,0,0,0-4.472-.039l-.151.054a6.684,6.684,0,0,0-3.61,3.235,6.574,6.574,0,0,0-.578,1.67,6.644,6.644,0,0,0,4.79,7.727,7.106,7.106,0,0,0,3.4.036,5.843,5.843,0,0,0,4.4-4.181A7.711,7.711,0,0,0,642.513,572.369Z" transform="translate(-602.41 -541.824)"/></g></g></svg>