<svg xmlns="http://www.w3.org/2000/svg" xmlns:xlink="http://www.w3.org/1999/xlink" width="100" height="100" viewBox="0 0 100 100"><defs><style>.a,.e{fill:#fff;}.a{stroke:#707070;}.b{fill:url(#a);}.c{clip-path:url(#b);}.d{fill:url(#c);}</style><linearGradient id="a" x1="0.5" x2="0.5" y2="1" gradientUnits="objectBoundingBox"><stop offset="0" stop-color="#16abfc"/><stop offset="1" stop-color="#016ae2"/></linearGradient><clipPath id="b"><circle class="a" cx="50" cy="50" r="50" transform="translate(1227 2204)"/></clipPath><linearGradient id="c" x1="0.5" x2="0.5" y2="1" gradientUnits="objectBoundingBox"><stop offset="0" stop-color="#fdfafa"/><stop offset="1" stop-color="#e3e3e3"/></linearGradient></defs><g transform="translate(-1347 -2204)"><g transform="translate(-82 -16)"><circle class="b" cx="50" cy="50" r="50" transform="translate(1429 2220)"/></g><g class="c" transform="translate(120)"><circle class="d" cx="0.5" cy="0.5" r="0.5" transform="translate(1220 2288)"/><path class="e" d="M37.66,12.785h7.029V.542A90.768,90.768,0,0,0,34.448,0C24.314,0,17.371,6.375,17.371,18.091V28.874H6.187V42.56H17.371V77H31.083V42.564H41.814l1.7-13.686H31.08V19.448C31.083,15.493,32.148,12.785,37.66,12.785Z" transform="translate(1251.483 2227)"/></g></g></svg>