<svg xmlns="http://www.w3.org/2000/svg" xmlns:xlink="http://www.w3.org/1999/xlink" width="100" height="100" viewBox="0 0 100 100"><defs><style>.a{fill:url(#a);}.b{fill:url(#b);}.c{fill:url(#d);}.d{fill:#fff;}.e{fill:url(#e);}.f{fill:url(#f);}.g{fill:url(#g);}</style><linearGradient id="a" x1="0.5" x2="0.5" y2="1" gradientUnits="objectBoundingBox"><stop offset="0" stop-color="#696969"/><stop offset="1" stop-color="#323232"/></linearGradient><linearGradient id="b" x1="0.228" y1="0.628" x2="0.983" y2="0.628" gradientUnits="objectBoundingBox"><stop offset="0" stop-color="#ffdc64"/><stop offset="1" stop-color="#ffb426"/></linearGradient><linearGradient id="d" x1="0.554" y1="0.678" x2="-0.139" y2="0.079" gradientUnits="objectBoundingBox"><stop offset="0" stop-color="#f43b36" stop-opacity="0"/><stop offset="0.436" stop-color="#d02021" stop-opacity="0.435"/><stop offset="1" stop-color="#a60108"/></linearGradient><linearGradient id="e" y1="0.5" x2="1" y2="0.5" gradientUnits="objectBoundingBox"><stop offset="0" stop-color="#69cdff"/><stop offset="1" stop-color="#2f76fc"/></linearGradient><radialGradient id="f" cx="0.539" cy="0.514" r="0.5" gradientTransform="translate(0 0)" gradientUnits="objectBoundingBox"><stop offset="0" stop-color="#2f76fc"/><stop offset="0.564" stop-color="#2f76fc" stop-opacity="0.439"/><stop offset="1" stop-color="#2f76fc" stop-opacity="0"/></radialGradient><linearGradient id="g" x1="0.243" y1="0.5" x2="0.76" y2="0.5" gradientUnits="objectBoundingBox"><stop offset="0" stop-color="#45425a"/><stop offset="1" stop-color="#2d3251"/></linearGradient></defs><g transform="translate(-1540 -2408)"><circle class="a" cx="50" cy="50" r="50" transform="translate(1540 2408)"/><g transform="translate(1565.833 2433.833)"><path class="b" d="M28.2,10.746,20.989,5.457a6.041,6.041,0,0,0-8.076,2.788L.61,33.526A6.043,6.043,0,0,0,3.4,41.6l18.085,8.8a6.041,6.041,0,0,0,8.076-2.788l-7.63-20.658C23.389,23.96,31.2,12.206,28.2,10.746Zm-2.113,7.208a3.337,3.337,0,0,1-1.539-4.461c.806-1.656,2.634-2.821,4.29-2.015S26.366,15.3,25.56,16.961,27.749,18.76,26.092,17.954Zm0,0" transform="translate(0.001 -3.381)"/><path class="b" d="M132.369,46.367H112.256a6.292,6.292,0,0,0-6.041,6.515V83.2a6.292,6.292,0,0,0,6.041,6.515h20.113a6.292,6.292,0,0,0,6.041-6.515V52.883A6.292,6.292,0,0,0,132.369,46.367Zm-10.057,9.708a3.609,3.609,0,1,1,3.336-3.6A3.475,3.475,0,0,1,122.313,56.075Zm0,0" transform="translate(-90.077 -41.382)"/><path class="c" d="M384.051,249.2" transform="translate(-338.046 -222.403)"/><path class="d" d="M176.742,180.6v-3.556q0-2.955,3.207-2.955a3.642,3.642,0,0,1,2.345.709,2.707,2.707,0,0,1,.886,2.247V180.6a2.705,2.705,0,0,1-.886,2.247,3.641,3.641,0,0,1-2.345.709Q176.742,183.557,176.742,180.6Zm1.706-.04q0,1.386,1.5,1.386,1.526,0,1.526-1.386v-3.476q0-1.385-1.526-1.386-1.5,0-1.5,1.386Zm0,0" transform="translate(-153.023 -155.372)"/><path class="d" d="M207.027,183.823a.719.719,0,0,1,.1-.361l8.788-17.655a.714.714,0,0,1,.718-.433,1.065,1.065,0,0,1,.7.264.817.817,0,0,1,.315.649,1.092,1.092,0,0,1-.072.385l-8.788,17.582a.816.816,0,0,1-.814.457.9.9,0,0,1-.678-.276A.865.865,0,0,1,207.027,183.823Zm0,0" transform="translate(-180.053 -147.594)"/><path class="d" d="M280.85,250.121a3.625,3.625,0,0,0-2.346-.714q-3.207,0-3.207,2.978v3.583q0,2.978,3.207,2.978a3.627,3.627,0,0,0,2.346-.714,2.738,2.738,0,0,0,.885-2.264v-3.583A2.737,2.737,0,0,0,280.85,250.121Zm-.821,5.813q0,1.4-1.525,1.4-1.5,0-1.5-1.4v-3.517q0-1.4,1.5-1.4,1.525,0,1.525,1.4Zm0,0" transform="translate(-240.983 -222.591)"/><path class="e" d="M137.346,368.376a3.261,3.261,0,0,1-2.927,0l-1.463-.751a3.262,3.262,0,0,0-2.927,0l-1.463.751a3.262,3.262,0,0,1-2.927,0l-1.462-.751a3.262,3.262,0,0,0-2.927,0l-1.462.751a3.262,3.262,0,0,1-2.927,0l-1.462-.751a3.26,3.26,0,0,0-2.927,0l-1.462.75a3.26,3.26,0,0,1-2.928,0l-1.53-.785a6,6,0,0,0,.729,2.285l.8.412a3.26,3.26,0,0,0,2.928,0l1.462-.751a3.262,3.262,0,0,1,2.927,0l1.462.751a3.262,3.262,0,0,0,2.927,0l1.462-.751a3.262,3.262,0,0,1,2.927,0l1.462.751a3.262,3.262,0,0,0,2.927,0l1.463-.751a3.262,3.262,0,0,1,2.927,0l1.463.751a3.261,3.261,0,0,0,2.927,0l.515-.264a6.008,6.008,0,0,0,.8-2.321Zm0,0" transform="translate(-90.377 -327.789)"/><path class="f" d="M209.438,46.259c-.126-.009-.254-.013-.381-.013s-.254,0-.38.013a5.649,5.649,0,1,0,.761,0Zm-.381,9a3.337,3.337,0,1,1,3.336-3.338A3.337,3.337,0,0,1,209.056,55.262Zm0,0" transform="translate(-176.821 -41.274)"/><path class="g" d="M238.157,11.368h-.244a2.037,2.037,0,0,1-2.037-2.038V2.038A2.037,2.037,0,0,1,237.912,0h.244a2.037,2.037,0,0,1,2.037,2.038V9.33A2.037,2.037,0,0,1,238.157,11.368Zm0,0" transform="translate(-205.799)"/></g></g></svg>