<svg xmlns="http://www.w3.org/2000/svg" xmlns:xlink="http://www.w3.org/1999/xlink" width="100" height="100" viewBox="0 0 100 100"><defs><style>.a{fill:url(#a);}.b{fill:url(#b);}.c{fill:url(#c);}.d{fill:url(#d);}.e{fill:url(#f);}.f{fill:url(#g);}</style><linearGradient id="a" x1="0.5" x2="0.5" y2="1" gradientUnits="objectBoundingBox"><stop offset="0" stop-color="#ffdc64"/><stop offset="1" stop-color="#ffb426"/></linearGradient><linearGradient id="b" x1="0.5" x2="0.5" y2="1" gradientUnits="objectBoundingBox"><stop offset="0" stop-color="#5d6d7e"/><stop offset="1" stop-color="#34495e"/></linearGradient><linearGradient id="c" x1="0.516" y1="0.114" x2="0.044" y2="0.72" gradientUnits="objectBoundingBox"><stop offset="0" stop-color="#ff8e31"/><stop offset="1" stop-color="#db6300"/></linearGradient><linearGradient id="d" x1="-0.408" y1="-0.408" x2="1.698" y2="1.908" gradientUnits="objectBoundingBox"><stop offset="0" stop-color="#49647e"/><stop offset="1" stop-color="#34495e"/></linearGradient><linearGradient id="f" x1="0.204" y1="0.099" x2="0.873" y2="0.896" gradientUnits="objectBoundingBox"><stop offset="0" stop-color="#748598"/><stop offset="1" stop-color="#5d6d7e"/></linearGradient><linearGradient id="g" x1="0.181" y1="0.129" x2="0.917" y2="0.904" gradientUnits="objectBoundingBox"><stop offset="0" stop-color="#c4f1ff"/><stop offset="1" stop-color="#74aef8"/></linearGradient></defs><g transform="translate(-580 -2288)"><circle class="a" cx="50" cy="50" r="50" transform="translate(580 2288)"/><g transform="translate(601 2308.833)"><path class="b" d="M306.161,309.484l1.425,1.426,1.666,1.658.642.647,3.325-3.327-3.728-3.734Z" transform="translate(-271.479 -271.472)"/><path class="c" d="M345.659,338.918l11.474,11.473a4.766,4.766,0,0,1-6.739,6.741l-11.473-11.474Z" transform="translate(-300.528 -300.525)"/><g transform="translate(0 0)"><path class="d" d="M331.132,337.879l6.738-6.74-.5-.5a1.669,1.669,0,0,0-2.359,0l-4.382,4.384a1.662,1.662,0,0,0,0,2.355Z" transform="translate(-292.739 -292.746)"/><path class="d" d="M0,21.545A21.543,21.543,0,1,1,21.543,43.091,21.543,21.543,0,0,1,0,21.545Z" transform="translate(0 -0.003)"/></g><path class="e" d="M39.793,59.014A19.211,19.211,0,1,0,20.582,39.8,19.212,19.212,0,0,0,39.793,59.014Z" transform="translate(-18.25 -18.261)"/><path class="f" d="M51.829,69.508A17.673,17.673,0,1,0,34.156,51.833,17.673,17.673,0,0,0,51.829,69.508Z" transform="translate(-30.287 -30.291)"/></g></g></svg>