<svg xmlns="http://www.w3.org/2000/svg" xmlns:xlink="http://www.w3.org/1999/xlink" width="252.226" height="188" viewBox="0 0 252.226 188"><defs><linearGradient id="a" x1="0.5" x2="0.5" y2="1" gradientUnits="objectBoundingBox"><stop offset="0" stop-color="#ffd00d"/><stop offset="0.238" stop-color="#ffcb0e"/><stop offset="0.535" stop-color="#fb1"/><stop offset="0.863" stop-color="#ffa215"/><stop offset="1" stop-color="#ff9517"/></linearGradient><linearGradient id="d" x1="0.5" x2="0.5" y2="1" gradientUnits="objectBoundingBox"><stop offset="0" stop-color="#92e2a1"/><stop offset="1" stop-color="#00af21"/></linearGradient><linearGradient id="k" x1="0.5" x2="0.5" y2="1" gradientUnits="objectBoundingBox"><stop offset="0" stop-color="#f0f0f0"/><stop offset="1" stop-color="#bcbcbc"/></linearGradient><linearGradient id="l" x1="0.531" y1="0.385" x2="0.518" y2="1.037" gradientUnits="objectBoundingBox"><stop offset="0" stop-color="#d8d8d8"/><stop offset="1" stop-color="#b4b4b4"/></linearGradient></defs><g transform="translate(0)"><path d="M164.379,161.47a12.331,12.331,0,1,1,12.774-12.323A12.569,12.569,0,0,1,164.379,161.47Zm0-20.949a8.632,8.632,0,1,0,8.942,8.626A8.8,8.8,0,0,0,164.379,140.521Z" transform="translate(-131.411 -24.044)" fill="url(#a)"/><path d="M196.794,195.64a5.056,5.056,0,1,1,5.238-5.053A5.153,5.153,0,0,1,196.794,195.64Zm0-8.626a3.576,3.576,0,1,0,3.7,3.574A3.645,3.645,0,0,0,196.794,187.014Z" transform="translate(-136.944 -21.634)" fill="#4285f4"/><ellipse cx="5.748" cy="5.545" rx="5.748" ry="5.545" transform="translate(236.688 112.61)" fill="url(#a)"/><ellipse cx="4.471" cy="4.313" rx="4.471" ry="4.313" transform="translate(0 51.851)" fill="url(#a)"/><ellipse cx="5.11" cy="4.929" rx="5.11" ry="4.929" transform="translate(193.335 24.523)" fill="url(#d)"/><ellipse cx="5.748" cy="5.545" rx="5.748" ry="5.545" transform="translate(37.432 92.315)" fill="#4285f4"/><ellipse cx="1.916" cy="1.848" rx="1.916" ry="1.848" transform="translate(162.488)" fill="#4285f4"/><ellipse cx="1.916" cy="1.848" rx="1.916" ry="1.848" transform="translate(202.301 108.017)" fill="#fbbc05"/><ellipse cx="1.916" cy="1.848" rx="1.916" ry="1.848" transform="translate(55.353 11.02)" fill="url(#a)"/><ellipse cx="3.194" cy="3.081" rx="3.194" ry="3.081" transform="translate(124.799 22.604)" fill="#4285f4"/><ellipse cx="3.194" cy="3.081" rx="3.194" ry="3.081" transform="translate(223.491 91.833)" fill="#4285f4"/><path d="M362.172,182l-13.049-13.168-13.293,6.979L334,172.56l15.868-8.331,12.465,12.578,20.712-18.562,2.607,2.709Z" transform="translate(-133.426 -11.945)" fill="url(#d)"/><path d="M185.481,105.376l-3.646-1.138,6.407-19.1-17.518-7.443L178.147,59.8l-20.9-4.971.917-3.59,25.178,5.989-7.685,18.519,17.3,7.349Z" transform="translate(-133.539 -33.239)" fill="url(#d)"/><path d="M383.06,132.307l-3.309-1.864c6.784-11.208,22.272-8.555,22.929-8.435l-.7,3.634C401.839,125.618,388.476,123.362,383.06,132.307Z" transform="translate(-165.966 -49.832)" fill="url(#d)"/><path d="M171.526,178.182l-3.592-1.288c.05-.128,5.133-12.808,20.691-11.184l-.41,3.676C175.574,168.075,171.564,178.081,171.526,178.182Z" transform="translate(-145.344 -14.696)" fill="url(#d)"/><path d="M311.2,199.555l-3.553-1.384c1.613-3.856,1.762-7.2.44-9.937-1.99-4.12-6.624-5.617-6.671-5.632l1.188-3.515c.254.08,6.271,2.025,8.956,7.585C313.347,190.377,313.225,194.711,311.2,199.555Z" transform="translate(-108.311 -11.555)" fill="#4285f4"/><path d="M205.412,70.287l-1.845-3.238c3.763-2,6.067-4.484,6.846-7.4,1.168-4.371-1.445-8.429-1.472-8.47l3.228-1.993c.146.217,3.531,5.394,1.966,11.34C213.093,64.489,210.159,67.773,205.412,70.287Z" transform="translate(-135.458 -41.73)" fill="#4285f4"/><path d="M335.011,164.358a25.9,25.9,0,0,1-20.407-18.03l3.721-.892-1.861.446,1.86-.451a22.127,22.127,0,0,0,17.4,15.293Z" transform="translate(-104.651 -19.374)" fill="#4285f4"/><path d="M310.6,90.881c-2.149,1.4,22.2-1.809,33.007-29.771.893-2.309-10.211-9.9-12.909-6.795S335.786,74.428,310.6,90.881Z" transform="translate(-105.799 -40.71)" fill="url(#a)"/></g><g transform="translate(57.084 25.684)"><path d="M199.773,109.2s.092,72.9,1.811,75.6,63.7,30.1,65.939,29.457l-.383-77.992Z" transform="translate(-193.594 -53.474)" fill="url(#k)"/><path d="M218.164,193.268s5.461,7.921,17.516,7.921V127.63l-17.516-7.706Z" transform="translate(-188.492 -50.983)" fill="#ea4335"/><path d="M252.016,137.107l1.013,77.694s60.158-28.142,60.734-31.12,2.159-76.845,2.159-76.845Z" transform="translate(-179.1 -54.023)" fill="url(#l)"/><path d="M274.24,199.088s10.575-1.188,15.857-7.876L291.92,118.3l-17.948,5.271Z" transform="translate(-173.008 -51.361)" fill="#ea4335"/><path d="M195.121,100.88s-.508,16.521.16,18.743,74.9,31.74,76.517,32.345c0,0-.471-20.038-.5-20.823C271.264,130.189,195.121,100.88,195.121,100.88Z" transform="translate(-194.936 -55.407)" fill="#e3e3e3"/><path d="M254.714,130.582l.5,20.823s63.493-24.885,64.417-27.879c.462-1.495,1.895-20.279-.484-20.219Z" transform="translate(-178.351 -54.843)" fill="#d1d1d1"/><path d="M271.259,135.31l64.433-27.276s-67.647-25.152-70.87-25.081c-3.181.071-69.741,22.091-69.741,22.091Z" transform="translate(-194.896 -59.571)" fill="#f0f0f0"/><path d="M219.862,93.341l74.528,27.927,1.41,21.1s9.846,1.006,14.84-6.226l-1.262-21.216L234.24,88.713S223.731,88.786,219.862,93.341Z" transform="translate(-188.021 -58.233)" fill="#ea4335"/><path d="M283.044,89.329s10.562-.131,15.778,5.688L233.8,121.126l-.293,20.359s-14.427-1.523-18.662-7.656l.554-20.012Z" transform="translate(-189.411 -58.09)" fill="#ea4335"/><path d="M298.867,71.376c-26.995-27.772-51.519,32.232-45.607,38.053C261.312,117.354,327.426,100.757,298.867,71.376Zm-43.8,36.558c-1.062-1.383,20.979-53.013,38.051-31.364C313.038,101.831,256.728,110.1,255.068,107.935Z" transform="translate(-179.001 -63.956)" fill="#ff594b"/><path d="M301.687,72.74c-.063.556-.125,1.112-.206,1.669-.683,4.707-2.467,8.537-4.4,12.518a12.208,12.208,0,0,1-2.434,5.081,3.269,3.269,0,0,1-1.11,1.277c-8.765,9.2-30.3,13.05-36.733,12.963a39.724,39.724,0,0,1-4.134.349,2.392,2.392,0,0,0,.508.822C260.915,115.032,322.258,100,301.687,72.74Z" transform="translate(-178.919 -61.944)" fill="#fff" opacity="0.1"/><path d="M257.926,104.684c4.112-1.744,4.316-36.047-14.707-27.491C223.093,86.244,252.326,107.06,257.926,104.684Zm-12.935-23.83c12.869-7.428,13.158,22.268,12.35,22.748C256.078,104.353,229.976,89.521,244.991,80.854Z" transform="translate(-183.477 -61.227)" fill="#ff594b"/><path d="M241.092,77.838c-.083.286-.166.573-.24.863a21.828,21.828,0,0,0-.4,7.02,6.376,6.376,0,0,0,.16,2.972,1.66,1.66,0,0,0,.286.842c2.44,6.214,12.28,12.227,15.474,13.412a20.47,20.47,0,0,0,1.97.961,1.308,1.308,0,0,1-.42.308C252.543,106.5,225.345,87.367,241.092,77.838Z" transform="translate(-183.475 -60.759)" fill="#ffbb24" opacity="0.18"/><path d="M264.841,109.331c5.912-5.82-18.612-65.824-45.607-38.052C190.677,100.66,256.791,117.257,264.841,109.331ZM224.982,76.472c17.072-21.649,39.113,29.983,38.051,31.366C261.374,110,205.063,101.733,224.982,76.472Z" transform="translate(-190.168 -63.979)" fill="#ff594b"/><path d="M216.328,72.643c.063.556.125,1.112.206,1.669.683,4.707,2.467,8.537,4.4,12.518a12.223,12.223,0,0,0,2.434,5.081,3.278,3.278,0,0,0,1.11,1.277c8.765,9.2,30.3,13.05,36.733,12.962a39.711,39.711,0,0,0,4.135.349,2.4,2.4,0,0,1-.51.821C257.1,114.935,195.759,99.9,216.328,72.643Z" transform="translate(-190.165 -61.966)" fill="#fff" opacity="0.1"/><path d="M269.9,87.344c-11.553-9.187-17.763,14.539-15.246,16.452C258.08,106.4,282.121,97.062,269.9,87.344Zm-14.642,15.805c-.469-.471,5.229-20.929,12.741-13.582C276.763,98.14,255.991,103.885,255.257,103.149Z" transform="translate(-178.522 -59.041)" fill="#ff594b"/><path d="M271.091,87.868c.005.212.009.424.006.637a15.609,15.609,0,0,1-1.027,4.916,4.6,4.6,0,0,1-.659,2.026,1.226,1.226,0,0,1-.354.532c-2.836,3.871-10.745,6.328-13.169,6.6a14.951,14.951,0,0,1-1.538.324.9.9,0,0,0,.232.286C257.877,105.689,280.2,97.162,271.091,87.868Z" transform="translate(-178.452 -58.43)" fill="#ffbb24" opacity="0.18"/><path d="M206.291,104.185q7.5-2.185,14.848-4.787c2.3-.813,1.3-4.388-1.019-3.565q-7.35,2.6-14.846,4.787a1.854,1.854,0,0,0,1.018,3.565Z" transform="translate(-192.441 -56.608)" fill="#fff" opacity="0.1"/></g></svg>