<svg xmlns="http://www.w3.org/2000/svg" width="421.441" height="142.407" viewBox="0 0 421.441 142.407">
  <g id="Group_27451" data-name="Group 27451" transform="translate(-11471.763 4064.047)">
    <path id="padlock_1_" data-name="padlock (1)" d="M140.889,62.905h-7.342V42.6c0-23.49-20.088-42.6-44.78-42.6s-44.78,19.111-44.78,42.6v20.3H36.646a7.565,7.565,0,0,0-7.747,7.37v64.66a7.566,7.566,0,0,0,7.747,7.37H140.889a7.566,7.566,0,0,0,7.747-7.37V70.276a7.566,7.566,0,0,0-7.747-7.37ZM62.8,42.6c0-13.624,11.651-24.708,25.972-24.708S114.739,28.977,114.739,42.6v20.3H62.8ZM97.21,105.057v13.218a8.453,8.453,0,0,1-16.885,0V105.057a12.693,12.693,0,0,1-5.157-10.139c0-7.145,6.089-12.938,13.6-12.938s13.6,5.793,13.6,12.938a12.693,12.693,0,0,1-5.157,10.139Z" transform="translate(11442.863 -4064.047)" fill="#5ebe00"/>
    <path id="Path_5330" data-name="Path 5330" d="M33.818-37.814l6.734-8.436c-5.476-4.144-10.8-6.364-17.612-6.364-8.658,0-17.464,4.662-17.464,14.5,0,9.99,7.178,13.246,14.06,15.836,4.662,1.7,9.472,3.33,9.472,7.4,0,4-3.626,5.7-7.252,5.7-5.55,0-8.584-2.886-12.58-6.586L1.406-8.14C7.1-2.368,13.468.888,21.608.888,31.08.888,41.736-4,41.736-15.1c0-11.322-8.954-14.726-16.28-17.242-3.33-1.184-7.992-2.072-7.992-5.846,0-2.96,2.886-4.44,5.624-4.44C27.084-42.624,30.784-40.33,33.818-37.814ZM83.99,0V-9.916H61.938V-21.682H83.99V-31.6H61.938V-41.884H83.99V-51.8H49.95V0Zm51.134-47.212c-5.476-3.478-10.434-5.476-16.724-5.476C103.23-52.688,90.946-41,90.946-25.9c0,15.614,11.322,26.788,26.936,26.788a29.229,29.229,0,0,0,18.2-6.29l-6.808-8.584A16.143,16.143,0,0,1,118.4-9.472c-9.472,0-14.726-6.882-14.726-16.428,0-9.1,6.216-16.428,14.8-16.428a17.1,17.1,0,0,1,10.878,4.366ZM185.148-24.42V-51.8H173.16v28.638c0,9.25-3.552,13.69-9.176,13.69s-9.176-4.44-9.176-13.69V-51.8H142.82v27.38c0,16.28,6.29,25.308,21.016,25.308C178.858.888,185.148-8.14,185.148-24.42ZM195.656,0h11.988V-20.2h.518L221.852,0H236.8c-3.478-4.736-11.026-15.244-15.614-21.608,5.624-2.22,10.73-6.66,10.73-14.43,0-11.4-10.878-15.762-19.388-15.762H195.656Zm11.988-41.884h4.588c4.144,0,6.956,2.442,6.956,6.068,0,4-3.552,5.7-8.362,5.7h-3.182ZM277.2,0V-9.916H255.152V-21.682H277.2V-31.6H255.152V-41.884H277.2V-51.8h-34.04V0Z" transform="translate(11616 -3955)" fill="#2e3c40"/>
    <path id="Path_5331" data-name="Path 5331" d="M13.71-15.33l2.73-3.42A11.224,11.224,0,0,0,9.3-21.33c-3.51,0-7.08,1.89-7.08,5.88,0,4.05,2.91,5.37,5.7,6.42,1.89.69,3.84,1.35,3.84,3,0,1.62-1.47,2.31-2.94,2.31-2.25,0-3.48-1.17-5.1-2.67L.57-3.3A11.035,11.035,0,0,0,8.76.36c3.84,0,8.16-1.98,8.16-6.48,0-4.59-3.63-5.97-6.6-6.99-1.35-.48-3.24-.84-3.24-2.37,0-1.2,1.17-1.8,2.28-1.8A7.151,7.151,0,0,1,13.71-15.33Zm18.27,0,2.73-3.42a11.224,11.224,0,0,0-7.14-2.58c-3.51,0-7.08,1.89-7.08,5.88,0,4.05,2.91,5.37,5.7,6.42,1.89.69,3.84,1.35,3.84,3,0,1.62-1.47,2.31-2.94,2.31-2.25,0-3.48-1.17-5.1-2.67L18.84-3.3A11.035,11.035,0,0,0,27.03.36c3.84,0,8.16-1.98,8.16-6.48,0-4.59-3.63-5.97-6.6-6.99-1.35-.48-3.24-.84-3.24-2.37,0-1.2,1.17-1.8,2.28-1.8A7.151,7.151,0,0,1,31.98-15.33ZM51.78,0V-4.02h-8.4V-21H38.52V0ZM75.33,0V-4.02H66.39V-8.79h8.94v-4.02H66.39v-4.17h8.94V-21H61.53V0ZM97.05,0V-21H92.19V-8.76L83.22-21H78.93V0h4.86V-12.18L92.67,0Zm21.39-19.14a12.028,12.028,0,0,0-6.78-2.22A10.918,10.918,0,0,0,100.53-10.5,10.51,10.51,0,0,0,111.45.36a11.85,11.85,0,0,0,7.38-2.55l-2.76-3.48a6.544,6.544,0,0,1-4.41,1.83c-3.84,0-5.97-2.79-5.97-6.66,0-3.69,2.52-6.66,6-6.66a6.932,6.932,0,0,1,4.41,1.77ZM121.56,0h4.86V-8.19h.21L132.18,0h6.06c-1.41-1.92-4.47-6.18-6.33-8.76,2.28-.9,4.35-2.7,4.35-5.85,0-4.62-4.41-6.39-7.86-6.39h-6.84Zm4.86-16.98h1.86a2.52,2.52,0,0,1,2.82,2.46c0,1.62-1.44,2.31-3.39,2.31h-1.29ZM149.4,0V-8.55L156.51-21h-5.64l-3.66,7.08h-.06L143.88-21h-5.97l6.63,12.27V0Zm9.66-21V0h4.86V-7.74h2.01c3.66,0,8.04-1.77,8.04-6.66,0-4.83-4.41-6.6-8.04-6.6Zm4.86,4.02h1.89c1.8,0,3,1.02,3,2.67,0,1.89-1.5,2.55-3.57,2.55h-1.32Zm25.44,0V-21H174.78v4.02h4.86V0h4.86V-16.98ZM196.47,0V-21h-4.86V0Zm20.46-10.5c0,3.72-2.49,6.66-5.91,6.66s-5.91-2.94-5.91-6.66,2.49-6.66,5.91-6.66S216.93-14.22,216.93-10.5Zm5.16,0a10.867,10.867,0,0,0-11.07-10.86A10.867,10.867,0,0,0,199.95-10.5,10.867,10.867,0,0,0,211.02.36,10.867,10.867,0,0,0,222.09-10.5ZM243.69,0V-21h-4.86V-8.76L229.86-21h-4.29V0h4.86V-12.18L239.31,0Z" transform="translate(11616 -3922)" fill="#a0a2a2"/>
  </g>
</svg>
