<svg xmlns="http://www.w3.org/2000/svg" width="24" height="24" viewBox="0 0 24 24"><rect width="24" height="24" fill="#0084b1"/><g transform="translate(3.626 3.645)"><path d="M70.87,69.215a2.009,2.009,0,1,1-2.023,2.006A2.017,2.017,0,0,1,70.87,69.215Z" transform="translate(-68.847 -69.215)" fill="#fff"/><path d="M77.11,185.825H74.754a.553.553,0,0,1-.553-.553V175.224a.553.553,0,0,1,.553-.553H77.11a.553.553,0,0,1,.553.553v10.047A.553.553,0,0,1,77.11,185.825Z" transform="translate(-73.919 -169.117)" fill="#fff"/><path d="M192.327,173.076a3.814,3.814,0,0,0-3.814-3.814h-.6a3.392,3.392,0,0,0-2.968,1.752l-.032,0v-1.233a.23.23,0,0,0-.23-.23h-2.938a.23.23,0,0,0-.23.23v10.695a.23.23,0,0,0,.23.23h3a.23.23,0,0,0,.23-.23v-6.179a1.958,1.958,0,0,1,1.92-1.967,1.942,1.942,0,0,1,1.964,1.942v6.2a.23.23,0,0,0,.23.23h3.01a.23.23,0,0,0,.23-.23v-7.4Z" transform="translate(-175.579 -163.993)" fill="#fff"/></g></svg>