<svg xmlns="http://www.w3.org/2000/svg" width="80" height="66.683" viewBox="0 0 80 66.683"><path d="M63.535,53.793H58.177a.637.637,0,0,0-.57.35,8.645,8.645,0,0,1-7.788,4.491A8.425,8.425,0,1,1,57.6,46.285a.73.73,0,0,0,.57.35H63.6a.667.667,0,0,0,.643-.844A14.967,14.967,0,0,0,35.235,48.6a14.88,14.88,0,0,0,28.937,6.038.63.63,0,0,0-.637-.844Z" transform="translate(-9.995 -10.579)"/><path d="M44.9,17.7a27.1,27.1,0,1,0-.714,54.189.7.7,0,0,0,.713-.63V66.346a.634.634,0,0,0-.643-.63,20.9,20.9,0,1,1,21.6-24.989.757.757,0,0,0,.643.56h5.078a.637.637,0,0,0,.644-.774A27.673,27.673,0,0,0,44.9,17.7Z" transform="translate(-4.865 -5.208)"/><path d="M40.033,0A40.072,40.072,0,0,0-.009,35.235a.667.667,0,0,0,.643.7h5a.627.627,0,0,0,.643-.56,34.054,34.054,0,0,1,67.415,0,.623.623,0,0,0,.643.56h5a.61.61,0,0,0,.643-.7A39.949,39.949,0,0,0,40.033,0Z" transform="translate(0.01 0)"/></svg>