<svg xmlns="http://www.w3.org/2000/svg" width="126" height="20" viewBox="0 0 126 20"><path d="M-1338.207,20a8.126,8.126,0,0,1-8.02-8.233,8.128,8.128,0,0,1,8.233-8.02,8.3,8.3,0,0,1,8.194,6.843.19.19,0,0,1-.04.163.19.19,0,0,1-.154.068h-1.523a.226.226,0,0,1-.193-.167,6.269,6.269,0,0,0-6.862-4.991,6.268,6.268,0,0,0-5.548,6.42,6.267,6.267,0,0,0,5.932,6.066.193.193,0,0,1,.136.055.188.188,0,0,1,.057.134v1.474a.209.209,0,0,1-.208.189Zm100.327-9.936a6.892,6.892,0,0,1,6.94-6.955A6.858,6.858,0,0,1-1224,10.064a6.892,6.892,0,0,1-6.939,6.955A6.859,6.859,0,0,1-1237.879,10.064Zm3.036,0a3.805,3.805,0,0,0,3.9,3.966,3.806,3.806,0,0,0,3.9-3.966,3.806,3.806,0,0,0-3.9-3.966A3.806,3.806,0,0,0-1234.843,10.064Zm-62.833,0a6.891,6.891,0,0,1,6.939-6.955,6.859,6.859,0,0,1,6.94,6.955,6.892,6.892,0,0,1-6.94,6.955A6.858,6.858,0,0,1-1297.676,10.064Zm3.036,0a3.806,3.806,0,0,0,3.9,3.966,3.806,3.806,0,0,0,3.9-3.966,3.806,3.806,0,0,0-3.9-3.966A3.807,3.807,0,0,0-1294.64,10.064Zm-21.36,0a6.793,6.793,0,0,1,6.939-6.955,6.558,6.558,0,0,1,6.4,4.728.415.415,0,0,1-.434.543h-2.222a.522.522,0,0,1-.543-.38,3.305,3.305,0,0,0-3.2-1.9,3.761,3.761,0,0,0-3.9,4.02,3.69,3.69,0,0,0,3.9,3.967,3.412,3.412,0,0,0,3.2-1.9.522.522,0,0,1,.543-.381h2.222c.326,0,.488.163.434.489a6.464,6.464,0,0,1-6.4,4.728A6.761,6.761,0,0,1-1316,10.064Zm54.647,6.466a.432.432,0,0,1-.488-.49V3.6a.431.431,0,0,1,.488-.489h2.114c.325,0,.488.163.488.435v12.5a.432.432,0,0,1-.488.49Zm-16.806,0a.432.432,0,0,1-.488-.49V3.489a.432.432,0,0,1,.488-.49h5.259a4.284,4.284,0,0,1,4.554,4.239A3.038,3.038,0,0,1-1269,9.194a3.974,3.974,0,0,1,1.464,2.989,4.34,4.34,0,0,1-4.554,4.347Zm2.6-2.717h3.307a1.706,1.706,0,0,0,1.518-1.685,1.653,1.653,0,0,0-1.518-1.63h-3.307Zm-.055-5.27h2.765a1.544,1.544,0,0,0,1.518-1.468,1.507,1.507,0,0,0-1.518-1.467h-2.765Zm31.064,7.933a.633.633,0,0,1-.6-.272l-3.254-4.129h-1.193v3.912a.432.432,0,0,1-.488.489h-2.114a.431.431,0,0,1-.488-.489V3.543a.431.431,0,0,1,.488-.489h4.662a4.6,4.6,0,0,1,4.554,4.619,4.4,4.4,0,0,1-2.331,3.857l3.469,4.347c.271.326.108.6-.271.6Zm-5.1-7.063h2.114a1.56,1.56,0,0,0,1.518-1.685,1.645,1.645,0,0,0-1.518-1.739h-2.114Zm-89.253,6.759a4.463,4.463,0,0,1-3.534-4.768,4.489,4.489,0,0,1,4.017-3.868,4.489,4.489,0,0,1,4.684,3.026.2.2,0,0,1-.033.175.2.2,0,0,1-.159.079h-1.629a.219.219,0,0,1-.171-.105,2.528,2.528,0,0,0-3.008-1.228,2.529,2.529,0,0,0-1.732,2.749,2.527,2.527,0,0,0,2.406,2.182,2.592,2.592,0,0,0,2.336-1.346.191.191,0,0,1,.171-.105h1.607a.189.189,0,0,1,.164.075.189.189,0,0,1,.027.178,4.464,4.464,0,0,1-4.231,3.053A4.479,4.479,0,0,1-1338.9,16.171Zm12.7-5.392h-1.5a.187.187,0,0,1-.193-.168A10.215,10.215,0,0,0-1338,1.851a10.213,10.213,0,0,0-10.11,8.76.189.189,0,0,1-.193.168h-1.5a.2.2,0,0,1-.141-.065.2.2,0,0,1-.052-.147A12.018,12.018,0,0,1-1337.99,0a11.983,11.983,0,0,1,11.982,10.568.183.183,0,0,1-.046.152.18.18,0,0,1-.135.06Z" transform="translate(1350)"/></svg>