<?xml version="1.0" encoding="utf-8"?>
<!-- Generator: Adobe Illustrator 25.0.1, SVG Export Plug-In . SVG Version: 6.00 Build 0)  -->
<svg version="1.1" id="Layer_1" xmlns="http://www.w3.org/2000/svg" xmlns:xlink="http://www.w3.org/1999/xlink" x="0px" y="0px"
	 viewBox="0 0 4002.2 896.7" style="enable-background:new 0 0 4002.2 896.7;" xml:space="preserve">
<style type="text/css">
	.st0{fill:url(#Path_10221_1_);}
	.st1{fill:url(#Path_10222_1_);}
	.st2{fill:url(#Path_10223_1_);}
	.st3{fill:url(#Path_10224_1_);}
	.st4{fill:url(#Path_10225_1_);}
	.st5{fill:url(#Path_10226_1_);}
	.st6{fill:url(#Path_10227_1_);}
	.st7{fill:url(#Path_10228_1_);}
	.st8{fill:url(#Path_10229_1_);}
	.st9{fill:url(#Path_10230_1_);}
	.st10{fill:url(#Path_10231_1_);}
	.st11{fill:#00032C;}
</style>
<g id="Group_31949" transform="translate(4701.529 -2396)">
	<g id="Group_31938" transform="translate(-4701.53 2396)">
		
			<linearGradient id="Path_10221_1_" gradientUnits="userSpaceOnUse" x1="1749.12" y1="697.4213" x2="1749.999" y2="698.0994" gradientTransform="matrix(885.363 0 0 -896.6709 -1548520.5 626074.3125)">
			<stop  offset="0" style="stop-color:#FD0FD0"/>
			<stop  offset="0.355" style="stop-color:#9D00FF"/>
			<stop  offset="0.631" style="stop-color:#0063FF"/>
			<stop  offset="1" style="stop-color:#00F5FF"/>
		</linearGradient>
		<path id="Path_10221" class="st0" d="M322.2,881.9c-91.2-26.7-173.2-83.5-231-159.8C31.5,643.3,0,549.3,0,450.2
			C0,202,202,0,450.2,0C585.5-0.2,713.7,60.6,799,165.6c20.4,25,40.3,52.8,40.3,93.6c0,115.5-148,164.7-217.2,72.1l0,0
			c-39-56.5-103.3-90.2-172-90.2c-115.2,0-209,93.8-209,209c0,74.6,42.1,173.4,160.3,227.3c64.1,29.2,146.8,45.1,223.6,34
			c22.2-54.9,26-103.9,28.5-128c2.1-20.3,5.2-50.9,18.2-78.1c46.8-98,213.6-81.3,213.6,59.2c0,72.7-78.8,177.4-214.4,210.2
			C597.9,886.1,450.1,919.4,322.2,881.9z M450.2,70.9c-209.1,0-379.3,170.1-379.3,379.3c0,167.3,111.5,316.9,271.2,363.7
			c57.3,16.8,149.5,21.6,220.4-28.1C497.6,784,431,768.8,372.1,742c-148.8-67.8-201.8-195.2-201.8-291.8
			c0-154.4,125.6-279.9,279.9-279.9c90.9,0,176.2,44.1,228.6,118.4c28.4,38.5,89.6,18.5,89.6-29.4c0-16.1-7.8-28.6-24.3-48.7
			C672.2,122,564.2,70.8,450.2,70.9L450.2,70.9z M767.1,514.9c-43,2.8-38.3,56-45.4,95.4c-1.3,7.4-8.4,52.6-14.1,76.7
			c70.9-34,106.4-93.1,106.8-122.5C814.4,531.5,800.3,512.7,767.1,514.9L767.1,514.9z"/>
		
			<linearGradient id="Path_10222_1_" gradientUnits="userSpaceOnUse" x1="-42047.5156" y1="1927.339" x2="-42047.7812" y2="1927.3561" gradientTransform="matrix(3.997803e-02 0 0 -0.161 2320.5305 976.9908)">
			<stop  offset="0" style="stop-color:#821C1D"/>
			<stop  offset="1" style="stop-color:#FFFFFF"/>
		</linearGradient>
		<path id="Path_10222" class="st1" d="M639.6,666.6c0,0.1,0,0.1,0,0.2C639.5,666.7,639.6,666.7,639.6,666.6L639.6,666.6z"/>
		
			<linearGradient id="Path_10223_1_" gradientUnits="userSpaceOnUse" x1="1743.7268" y1="698.7727" x2="1742.7378" y2="696.6927" gradientTransform="matrix(215.1046 0 0 -314.4415 -374227.0312 220139.5938)">
			<stop  offset="0" style="stop-color:#000000;stop-opacity:0.686"/>
			<stop  offset="1" style="stop-color:#000000;stop-opacity:0"/>
		</linearGradient>
		<path id="Path_10223" class="st2" d="M815.2,698.5c55.5-52.2,70.2-105,70.2-133.9c0-48.3-17.7-74.7-35.6-91.8
			c-17.4-16.7-90.3-28.6-116.5,68.9c5.6-14.9,15.2-25.5,33.8-26.7c12.1-0.8,25.2,1.2,34.2,9.6c10.9,10.2,13.2,27.4,13.2,40
			c0,0.5-2,39.2-47.8,82.3c-17.5,16.4-37.4,29.9-59,40.2c0.5-2.1,0.9-4.2,1.4-6.3c-14.5,63.3-43.5,102.4-38.1,94.1
			C726.9,761.2,775.9,735.4,815.2,698.5z"/>
		
			<linearGradient id="Path_10224_1_" gradientUnits="userSpaceOnUse" x1="-6172.5723" y1="3203.6306" x2="-6172.5659" y2="3203.6355" gradientTransform="matrix(7.995605e-03 0 0 -7.995605e-03 2384.2676 1008.791)">
			<stop  offset="6.000000e-03" style="stop-color:#000000"/>
			<stop  offset="8.600000e-02" style="stop-color:#1D1D1D"/>
			<stop  offset="0.28" style="stop-color:#616161"/>
			<stop  offset="0.465" style="stop-color:#999999"/>
			<stop  offset="0.634" style="stop-color:#C5C5C5"/>
			<stop  offset="0.785" style="stop-color:#E4E4E4"/>
			<stop  offset="0.912" style="stop-color:#F8F8F8"/>
			<stop  offset="1" style="stop-color:#FFFFFF"/>
		</linearGradient>
		<path id="Path_10224" class="st3" d="M647.3,805.2L647.3,805.2L647.3,805.2L647.3,805.2z"/>
		
			<linearGradient id="Path_10225_1_" gradientUnits="userSpaceOnUse" x1="-7323.3662" y1="845.0178" x2="-7319.3569" y2="845.5048" gradientTransform="matrix(0.193 0 0 -1.34 2127.1748 1784.5065)">
			<stop  offset="6.000000e-03" style="stop-color:#000000"/>
			<stop  offset="8.600000e-02" style="stop-color:#1D1D1D"/>
			<stop  offset="0.28" style="stop-color:#616161"/>
			<stop  offset="0.465" style="stop-color:#999999"/>
			<stop  offset="0.634" style="stop-color:#C5C5C5"/>
			<stop  offset="0.785" style="stop-color:#E4E4E4"/>
			<stop  offset="0.912" style="stop-color:#F8F8F8"/>
			<stop  offset="1" style="stop-color:#FFFFFF"/>
		</linearGradient>
		<path id="Path_10225" class="st4" d="M714.3,651.2c-0.1,0.5-0.1,0.9-0.2,1.3C714.2,652.1,714.2,651.6,714.3,651.2z"/>
		
			<linearGradient id="Path_10226_1_" gradientUnits="userSpaceOnUse" x1="1747.642" y1="698.3162" x2="1746.6019" y2="698.5802" gradientTransform="matrix(401.515 0 0 -209.4643 -700911.3125 146574.3438)">
			<stop  offset="0" style="stop-color:#000000;stop-opacity:0.725"/>
			<stop  offset="0.537" style="stop-color:#000000;stop-opacity:0.314"/>
			<stop  offset="0.911" style="stop-color:#000000;stop-opacity:0"/>
			<stop  offset="1" style="stop-color:#000000;stop-opacity:0"/>
		</linearGradient>
		<path id="Path_10226" class="st5" d="M768.4,259.2c0,47.9-61.2,68-89.6,29.4c-64.8-91.8-178.2-135.9-288-112l9,70.7
			c84.4-21,172.9,12.5,222.3,84l0,0c34.6,46.3,88.9,57.1,134.6,41.9c65.4-52.5,25.9-113.4-1.9-148.9
			C764,237.1,768.4,247.1,768.4,259.2z"/>
		
			<linearGradient id="Path_10227_1_" gradientUnits="userSpaceOnUse" x1="-6172.5723" y1="3203.6306" x2="-6172.5659" y2="3203.6355" gradientTransform="matrix(7.995605e-03 0 0 -7.995605e-03 2384.2676 1008.791)">
			<stop  offset="6.000000e-03" style="stop-color:#000000"/>
			<stop  offset="8.600000e-02" style="stop-color:#1D1D1D"/>
			<stop  offset="0.28" style="stop-color:#616161"/>
			<stop  offset="0.465" style="stop-color:#999999"/>
			<stop  offset="0.634" style="stop-color:#C5C5C5"/>
			<stop  offset="0.785" style="stop-color:#E4E4E4"/>
			<stop  offset="0.912" style="stop-color:#F8F8F8"/>
			<stop  offset="1" style="stop-color:#FFFFFF"/>
		</linearGradient>
		<path id="Path_10227" class="st6" d="M647.3,805.2L647.3,805.2L647.3,805.2L647.3,805.2z"/>
		
			<linearGradient id="Path_10228_1_" gradientUnits="userSpaceOnUse" x1="-7323.3662" y1="845.0178" x2="-7319.3569" y2="845.5048" gradientTransform="matrix(0.193 0 0 -1.34 2127.1748 1784.5065)">
			<stop  offset="6.000000e-03" style="stop-color:#000000"/>
			<stop  offset="8.600000e-02" style="stop-color:#1D1D1D"/>
			<stop  offset="0.28" style="stop-color:#616161"/>
			<stop  offset="0.465" style="stop-color:#999999"/>
			<stop  offset="0.634" style="stop-color:#C5C5C5"/>
			<stop  offset="0.785" style="stop-color:#E4E4E4"/>
			<stop  offset="0.912" style="stop-color:#F8F8F8"/>
			<stop  offset="1" style="stop-color:#FFFFFF"/>
		</linearGradient>
		<path id="Path_10228" class="st7" d="M714.3,651.2c-0.1,0.5-0.1,0.9-0.2,1.3C714.2,652.1,714.2,651.6,714.3,651.2z"/>
		
			<linearGradient id="Path_10229_1_" gradientUnits="userSpaceOnUse" x1="1747.7856" y1="697.3851" x2="1746.9906" y2="698.1301" gradientTransform="matrix(425.2833 0 0 -516.727 -742720.6875 361142.4062)">
			<stop  offset="0" style="stop-color:#000000;stop-opacity:0.435"/>
			<stop  offset="0.512" style="stop-color:#000000;stop-opacity:0"/>
			<stop  offset="1" style="stop-color:#000000;stop-opacity:0.902"/>
		</linearGradient>
		<path id="Path_10229" class="st8" d="M241.2,450.2c0-76.7,43.2-144.9,105-181.2c-125.3,62.4-223.8,271.3-61.4,418.3
			c78,64.1,181.3,95.9,277.7,98.4c7.4-3.3,41.5-38.1,62.6-74.3C450.9,736.2,241.2,632.8,241.2,450.2z"/>
		
			<linearGradient id="Path_10230_1_" gradientUnits="userSpaceOnUse" x1="1744.9858" y1="697.9574" x2="1745.7799" y2="697.4254" gradientTransform="matrix(281.2305 0 0 -612.5529 -490638.7812 428028.9062)">
			<stop  offset="0" style="stop-color:#000000;stop-opacity:0.902"/>
			<stop  offset="0.655" style="stop-color:#000000;stop-opacity:0"/>
			<stop  offset="1" style="stop-color:#000000;stop-opacity:0"/>
		</linearGradient>
		<path id="Path_10230" class="st9" d="M304.2,800.4C165.1,742.6,70.9,603.9,70.9,450.2c0-33.3,7.9-110.7,46.2-181.2
			C59.4,373.4-32.6,644,167.7,800.8c45.8,35.9,97.6,64.2,153.2,80.7C334.5,870.1,319.7,831.8,304.2,800.4z"/>
		
			<linearGradient id="Path_10231_1_" gradientUnits="userSpaceOnUse" x1="-43144.3789" y1="4297.7935" x2="-43144.0977" y2="4297.1162" gradientTransform="matrix(3.900146e-02 0 0 -5.500031e-02 1827.3453 462.1282)">
			<stop  offset="6.000000e-03" style="stop-color:#000000"/>
			<stop  offset="8.600000e-02" style="stop-color:#1D1D1D"/>
			<stop  offset="0.28" style="stop-color:#616161"/>
			<stop  offset="0.465" style="stop-color:#999999"/>
			<stop  offset="0.634" style="stop-color:#C5C5C5"/>
			<stop  offset="0.785" style="stop-color:#E4E4E4"/>
			<stop  offset="0.912" style="stop-color:#F8F8F8"/>
			<stop  offset="1" style="stop-color:#FFFFFF"/>
		</linearGradient>
		<path id="Path_10231" class="st10" d="M144.6,225.8L144.6,225.8L144.6,225.8L144.6,225.8z"/>
	</g>
	<path id="Path_10233" class="st11" d="M-3005.4,2987.2h-104.7c-17.8,0-33.5,6.3-47.1,19.9c-23,26.2-51.3,39.8-83.7,39.8
		c-77.5,1-116.2-54.4-116.2-164.3s36.6-165.4,109.9-165.4c44,0,73.3,19.9,90,57.6h151.8c-24.1-120.4-103.6-180-237.6-180
		c-170.6,3.1-255.4,98.4-255.4,287.9c4.2,190.5,90,286.8,257.5,286.8C-3112.2,3172.4-3030.5,3100.2-3005.4,2987.2z M-2685.1,2594.6
		c-167.5,0-251.2,95.3-251.2,287.9c0,190.5,83.7,286.8,251.2,286.8c167.5,0,252.3-96.3,252.3-286.8
		C-2432.8,2689.9-2517.6,2594.6-2685.1,2594.6z M-2685.1,2717.1c71.2,0,106.8,53.4,106.8,161.2c-1,109.9-36.6,166.4-107.8,166.4
		s-107.8-54.4-108.9-162.2C-2795,2772.6-2758.4,2717.1-2685.1,2717.1L-2685.1,2717.1z M-2226.6,2515.1c0-46.1-23-70.1-69.1-70.1
		h-70.1V2917c0,166.4,86.9,249.1,259.6,248.1c171.7-3.1,257.5-96.3,257.5-280.5c0-188.4-73.3-284.7-220.9-290
		c-69.1,0-121.4,28.3-157,85.8L-2226.6,2515.1z M-2108.3,2719.2c75.4,0,114.1,52.3,117.2,159.1c0,112-39.8,168.5-119.3,168.5
		c-79.6,0-117.2-56.5-116.2-168.5C-2222.4,2771.5-2183.7,2719.2-2108.3,2719.2z M-1785.9,2444.9v108.9h139.2V2513
		c1-45-20.9-68-67-68H-1785.9z M-1785.9,2603v553.7h139.2V2670c0-45-22-67-67-67H-1785.9z M-1568.2,3156.7h141.3v-287.9
		c0-80.6,38.7-121.4,116.2-121.4h47.1V2603h-19.9c-185.3,0-280.5,89-284.7,268L-1568.2,3156.7z M-951.6,2594.6
		c-167.5,0-251.2,95.3-251.2,287.9c0,190.5,83.7,286.8,251.2,286.8s252.3-96.3,252.3-286.8C-699.4,2689.9-784.1,2594.6-951.6,2594.6
		z M-951.6,2717.1c71.2,0,106.8,53.4,106.8,161.2c-1,109.9-36.6,166.4-107.8,166.4s-107.8-54.4-108.9-162.2
		C-1061.5,2772.6-1024.9,2717.1-951.6,2717.1L-951.6,2717.1z"/>
</g>
</svg>
