<svg xmlns="http://www.w3.org/2000/svg" viewBox="0 0 400.48 60.82"><title>cobiro_logo_1</title><g id="Lag_2" data-name="Lag 2"><g id="Layer_1" data-name="Layer 1"><path d="M204.56,26.74a13.28,13.28,0,0,0,2.91-8.41C207.47,7.27,198.59,0,187.56,0H164.65a1.87,1.87,0,0,0-2.08,2.08V56.49a1.87,1.87,0,0,0,2.08,2.08H191c11,0,19.91-7.78,19.91-18.84C210.9,33.31,207.72,29.8,204.56,26.74ZM175.86,11.1h12a6.46,6.46,0,0,1,6.65,6.37,6.61,6.61,0,0,1-6.65,6.32h-12Zm14.48,35.82H175.86V32.49h14.48c3.64,0,6.64,3.66,6.64,7C197,43.14,194,46.92,190.34,46.92Z"/><path d="M0,30.52C0,13.37,12.71.23,30.24.23c13.26,0,24.56,8.33,28,20.46a1.73,1.73,0,0,1-1.83,2.36H46.59a2.4,2.4,0,0,1-2.32-1.69c-2.33-5.08-7.72-8.15-14-8.15-10.3,0-16.94,6.9-16.94,17.31s6.64,17.31,16.94,17.31c6.31,0,11.7-3.06,14-8.15A2.38,2.38,0,0,1,46.59,38h9.78c1.44,0,2.17.83,1.83,2.14C55,52.33,43.59,60.82,30.24,60.82,12.71,60.82,0,47.68,0,30.52M109.88,13.21c-9.46,0-16.94,6.9-16.94,17.31s7.48,17.31,16.94,17.31,17-6.89,17-17.31S119.35,13.21,109.88,13.21Zm0-13a30,30,0,0,1,30.21,30.29,30.22,30.22,0,1,1-60.44,0A30,30,0,0,1,109.88.23ZM238,.23h9.12a1.89,1.89,0,0,1,2.09,2.08v54.1a1.89,1.89,0,0,1-2.09,2.08H238a1.88,1.88,0,0,1-2.09-2.08V2.31A1.88,1.88,0,0,1,238,.23M289,27.7h9.13c3.65,0,6.65-3.24,6.65-7.5s-3-7.48-6.65-7.48H289Zm32.44,30.79h-10.6a2.86,2.86,0,0,1-2.57-1.25L294.12,39.35H289V56.41a1.88,1.88,0,0,1-2.08,2.08h-9.13a1.87,1.87,0,0,1-2.08-2.08V2.31A1.87,1.87,0,0,1,277.79.23h20.34A19.9,19.9,0,0,1,318,20.2a19.27,19.27,0,0,1-10.26,16.69l14.92,19C323.77,57.24,323.19,58.49,321.44,58.49Zm48.83-45.28c-9.46,0-16.94,6.9-16.94,17.31s7.48,17.31,16.94,17.31,17-6.89,17-17.31S379.74,13.21,370.27,13.21Zm0-13a30,30,0,0,1,30.21,30.29,30.22,30.22,0,1,1-60.44,0A30,30,0,0,1,370.27.23Z"/></g></g></svg>