<svg xmlns="http://www.w3.org/2000/svg" xmlns:xlink="http://www.w3.org/1999/xlink" width="10.167" height="20" viewBox="0 0 10.167 20"><defs><linearGradient id="a" x1="0.5" x2="1" y2="1.789" gradientUnits="objectBoundingBox"><stop offset="0" stop-color="#92e2a1"/><stop offset="1" stop-color="#00af21"/></linearGradient></defs><path d="M36.073,15.658c0-4.568-7.284-3.832-7.284-6.568,0-1.095.989-1.747,2.4-1.747a5.006,5.006,0,0,1,2.358.653c.189.105.358.211.547.316a.536.536,0,0,0,.779-.189l.653-1.2a.547.547,0,0,0-.126-.674,6.266,6.266,0,0,0-.611-.421,6.706,6.706,0,0,0-2.526-.821V3.026a.521.521,0,0,0-.526-.526H30.326a.521.521,0,0,0-.526.526V5.047c-2.295.463-3.811,2.063-3.811,4.084,0,4.737,7.284,4.084,7.284,6.695,0,1.2-1.053,1.853-2.295,1.853a5.41,5.41,0,0,1-2.653-.821,8.52,8.52,0,0,1-.716-.484.532.532,0,0,0-.737.105l-.863,1.158a.552.552,0,0,0,.084.737c.232.189.484.358.758.547a7.274,7.274,0,0,0,2.926,1.095v1.958a.521.521,0,0,0,.526.526h1.411a.521.521,0,0,0,.526-.526V19.995A4.366,4.366,0,0,0,36.073,15.658Z" transform="translate(-25.906 -2.5)" fill="url(#a)"/></svg>