<svg xmlns="http://www.w3.org/2000/svg" width="80" height="80" viewBox="0 0 80 80"><g transform="translate(-620 -1296)"><path d="M40,0A40,40,0,1,1,0,40,40,40,0,0,1,40,0Z" transform="translate(620 1296)" fill="#304ffe" opacity="0.1"/><g transform="translate(639.999 1316)"><path d="M36.364,0H3.636A3.64,3.64,0,0,0,0,3.636V36.364A3.64,3.64,0,0,0,3.636,40H36.364A3.64,3.64,0,0,0,40,36.364V3.636A3.64,3.64,0,0,0,36.364,0Zm1.818,36.364a1.821,1.821,0,0,1-1.818,1.818H3.636a1.821,1.821,0,0,1-1.818-1.818V9.091H38.182Zm0-29.091H1.818V3.636A1.821,1.821,0,0,1,3.636,1.818H36.364a1.821,1.821,0,0,1,1.818,1.818V7.273Z" fill="#304ffe"/><circle cx="0.909" cy="0.909" r="0.909" transform="translate(3.636 3.636)" fill="#304ffe"/><circle cx="0.909" cy="0.909" r="0.909" transform="translate(7.273 3.636)" fill="#304ffe"/><circle cx="0.909" cy="0.909" r="0.909" transform="translate(10.909 3.636)" fill="#304ffe"/><path d="M64.909,165.7H83.091a.909.909,0,0,0,.909-.909V150.242a.909.909,0,0,0-.909-.909H64.909a.909.909,0,0,0-.909.909v14.545A.909.909,0,0,0,64.909,165.7Zm.909-14.545H82.182v12.727H65.818Z" transform="translate(-58.545 -136.606)" fill="#304ffe"/><path d="M109.394,192a2.73,2.73,0,0,0-2.727,2.727v5.455a.909.909,0,0,0,1.818,0v-.909H110.3v.909a.909.909,0,0,0,1.818,0v-5.455A2.73,2.73,0,0,0,109.394,192Zm.909,5.455h-1.818v-2.727a.909.909,0,1,1,1.818,0v2.727Z" transform="translate(-97.576 -175.636)" fill="#304ffe"/><path d="M194.727,192h-1.818a.909.909,0,0,0-.909.909v7.273a.909.909,0,0,0,.909.909h1.818a2.73,2.73,0,0,0,2.727-2.727v-3.636A2.73,2.73,0,0,0,194.727,192Zm.909,6.364a.91.91,0,0,1-.909.909h-.909v-5.455h.909a.91.91,0,0,1,.909.909Z" transform="translate(-175.636 -175.636)" fill="#304ffe"/><path d="M64.909,385.817H92.182a.909.909,0,1,0,0-1.818H64.909a.909.909,0,1,0,0,1.818Z" transform="translate(-58.545 -351.272)" fill="#304ffe"/><path d="M320.909,193.818h5.455a.909.909,0,1,0,0-1.818h-5.455a.909.909,0,1,0,0,1.818Z" transform="translate(-292.727 -175.636)" fill="#304ffe"/><path d="M320.909,257.818h5.455a.909.909,0,1,0,0-1.818h-5.455a.909.909,0,1,0,0,1.818Z" transform="translate(-292.727 -234.182)" fill="#304ffe"/><path d="M320.909,321.817h5.455a.909.909,0,1,0,0-1.818h-5.455a.909.909,0,1,0,0,1.818Z" transform="translate(-292.727 -292.726)" fill="#304ffe"/></g></g></svg>