<svg xmlns="http://www.w3.org/2000/svg" width="32" height="30" viewBox="0 0 32 30"><g transform="translate(0 -31.05)"><g transform="translate(0 31.05)"><path d="M254.706,263.75h-4.348a2.244,2.244,0,0,0-2.158,2.317v3.581a2.244,2.244,0,0,0,2.158,2.317h4.348a2.244,2.244,0,0,0,2.158-2.317v-3.581A2.244,2.244,0,0,0,254.706,263.75Zm.588,5.9a.613.613,0,0,1-.588.632h-4.348a.613.613,0,0,1-.588-.632v-3.581a.613.613,0,0,1,.588-.632h4.348a.613.613,0,0,1,.588.632Z" transform="translate(-231.971 -247.413)" fill="#304ffe"/><path d="M32,40.879a.826.826,0,0,0-.1-.414l-4.76-8.987a.782.782,0,0,0-.68-.428H5.538a.768.768,0,0,0-.68.428L.1,40.465a.9.9,0,0,0-.1.414,4.952,4.952,0,0,0,2.746,4.507V60.208a.818.818,0,0,0,.785.843H28.463a.818.818,0,0,0,.785-.843V45.492a.4.4,0,0,0-.007-.091A4.965,4.965,0,0,0,32,40.879ZM6,32.742H26l3.72,7.028H2.282Zm16.778,8.706a2.985,2.985,0,0,1-5.937,0Zm-7.6,0A3.083,3.083,0,0,1,12.2,44.116a3.1,3.1,0,0,1-2.975-2.668Zm-13.548,0H7.565A3.09,3.09,0,0,1,4.59,44.116,3.077,3.077,0,0,1,1.622,41.448Zm11.56,17.917H8.67V50.273a1.161,1.161,0,0,1,1.118-1.2H12.07a1.161,1.161,0,0,1,1.118,1.2v9.092Zm14.5,0H14.751V50.273a2.8,2.8,0,0,0-2.687-2.886H9.782a2.8,2.8,0,0,0-2.687,2.886v9.1H4.315V45.8c.092.007.183.007.275.007A4.509,4.509,0,0,0,8.4,43.631a4.415,4.415,0,0,0,7.611,0,4.4,4.4,0,0,0,7.6,0,4.509,4.509,0,0,0,3.805,2.176c.092,0,.177-.007.268-.007V59.365ZM27.41,44.123a3.083,3.083,0,0,1-2.969-2.668h5.944A3.1,3.1,0,0,1,27.41,44.123Z" transform="translate(0 -31.05)" fill="#304ffe"/></g></g></svg>