<svg xmlns="http://www.w3.org/2000/svg" width="48" height="48" viewBox="0 0 48 48"><g transform="translate(-780 -5349)"><g transform="translate(480 1822)"><rect width="48" height="48" rx="24" transform="translate(300 3527)" fill="#e6e6e6"/><g transform="translate(312 3540.5)" opacity="0.4"><path d="M183.148,100.976a2.331,2.331,0,1,0-2.4-2.33A2.367,2.367,0,0,0,183.148,100.976Zm0-3.293a.964.964,0,1,1-.991.963A.979.979,0,0,1,183.148,97.683Zm0,0" transform="translate(-172.277 -91.452)"/><path d="M23.124.5H.876A.865.865,0,0,0,0,1.351v18.3a.865.865,0,0,0,.876.851H23.124A.865.865,0,0,0,24,19.649V1.351A.865.865,0,0,0,23.124.5Zm-.53,1.366V12.679l-4.423-4.3a.756.756,0,0,0-1.046,0L10.87,14.46l-4-3.882a.755.755,0,0,0-1.046,0l-4.422,4.3V1.866ZM1.406,19.134V16.807L6.352,12l4,3.882a.754.754,0,0,0,1.046,0l6.255-6.078,4.945,4.805v4.522Zm0,0"/></g></g></g></svg>