<svg xmlns="http://www.w3.org/2000/svg" xmlns:xlink="http://www.w3.org/1999/xlink" width="15.049" height="20.001" viewBox="0 0 15.049 20.001"><defs><linearGradient id="a" x1="0.5" x2="0.5" y2="1" gradientUnits="objectBoundingBox"><stop offset="0" stop-color="#69cdff"/><stop offset="1" stop-color="#4883f0"/></linearGradient><linearGradient id="b" x1="0.5" x2="0.5" y2="1" gradientUnits="objectBoundingBox"><stop offset="0" stop-color="#739ff2"/><stop offset="1" stop-color="#3667c3"/></linearGradient><linearGradient id="c" x1="0.5" x2="0.5" y2="1" gradientUnits="objectBoundingBox"><stop offset="0" stop-color="#3b3a3a"/><stop offset="1" stop-color="#694b4b"/></linearGradient><linearGradient id="d" x1="0.886" y1="0.031" x2="0.351" y2="0.621" gradientUnits="objectBoundingBox"><stop offset="0" stop-color="#906c6c"/><stop offset="1" stop-color="#694b4b"/></linearGradient><linearGradient id="e" x1="0.5" x2="0.5" y2="0.553" gradientUnits="objectBoundingBox"><stop offset="0" stop-color="#c6883f"/><stop offset="1" stop-color="#f0c087"/></linearGradient><linearGradient id="h" x1="0.013" y1="0.033" x2="0.904" y2="0.937" gradientUnits="objectBoundingBox"><stop offset="0" stop-color="#ffb762"/><stop offset="1" stop-color="#f0c087"/></linearGradient></defs><g transform="translate(-11428.845 -12299)"><path d="M129.5,327.544l-3.7-1.352-2.656.889-2.656-.889-3.7,1.352a1.777,1.777,0,0,0-1.165,1.671v2.755a.444.444,0,0,0,.443.444h14.163a.444.444,0,0,0,.443-.444v-2.755A1.777,1.777,0,0,0,129.5,327.544Z" transform="translate(11313.232 11986.586)" fill="url(#a)"/><path d="M349.018,359.855a1.78,1.78,0,0,1,.476,1.211v2.755a.443.443,0,0,1-.443.444h-2.213V362.78a1.781,1.781,0,0,1,.519-1.257Z" transform="translate(11094.399 11954.734)" fill="url(#b)"/><path d="M174.9,74.805V71.082a.887.887,0,0,0-.885-.889H168.7a3.548,3.548,0,0,0-3.541,3.556v1.057a4.461,4.461,0,0,0,.227,1.405l.147.444a1.338,1.338,0,0,1,.068.422V77.3h8.852v-.228a1.338,1.338,0,0,1,.068-.422l.147-.444A4.46,4.46,0,0,0,174.9,74.805Z" transform="translate(11266.34 12228.807)" fill="url(#c)"/><path d="M206.452,72a1.8,1.8,0,0,0,1.8,1.806h.249l.12,3.5h4.914v-.228a1.339,1.339,0,0,1,.068-.422l.147-.444a4.461,4.461,0,0,0,.227-1.405V71.082a.887.887,0,0,0-.885-.889H208.25A1.8,1.8,0,0,0,206.452,72Z" transform="translate(11227.263 12228.807)" fill="url(#d)"/><rect width="5.311" height="4" transform="translate(11433.714 12309.666)" fill="url(#e)"/><g transform="translate(11432.829 12312.038)"><path d="M193.477,314.072l-1.412,1.418a.441.441,0,0,1-.665-.046l-1.464-1.937.383-.81a.442.442,0,0,1,.632-.188Z" transform="translate(-189.936 -312.443)" fill="url(#b)"/><path d="M256,314.072l1.412,1.418a.441.441,0,0,0,.665-.046l1.464-1.937-.383-.81a.442.442,0,0,0-.632-.188Z" transform="translate(-252.459 -312.443)" fill="url(#b)"/></g><path d="M177.845,145.541h0a4.435,4.435,0,0,1-4.426-4.444v-.521a.891.891,0,0,1,.259-.629l.367-.368a.891.891,0,0,0,.259-.629v-1.065a.441.441,0,0,1,.337-.432c1.047-.248,4.3-.836,6.521.8a.571.571,0,0,1,.224.46v.236a.891.891,0,0,0,.259.629l.367.368a.891.891,0,0,1,.259.629v.521A4.435,4.435,0,0,1,177.845,145.541Z" transform="translate(11258.524 12165.458)" fill="url(#h)"/><path d="M116.089,359.855a1.78,1.78,0,0,0-.476,1.211v2.755a.443.443,0,0,0,.443.444h2.213V362.78a1.781,1.781,0,0,0-.519-1.257Z" transform="translate(11313.232 11954.734)" fill="url(#b)"/></g></svg>