<svg xmlns="http://www.w3.org/2000/svg" width="29" height="24" viewBox="0 0 29 24"><path d="M29,50.841a12.219,12.219,0,0,1-3.426.956A6,6,0,0,0,28.19,48.45a11.751,11.751,0,0,1-3.77,1.466A5.908,5.908,0,0,0,20.077,48a6,6,0,0,0-5.941,6.057,6.347,6.347,0,0,0,.138,1.381A16.729,16.729,0,0,1,2.019,49.1a6.183,6.183,0,0,0-.814,3.061A6.1,6.1,0,0,0,3.846,57.2a5.789,5.789,0,0,1-2.686-.746v.066a6.057,6.057,0,0,0,4.763,5.95,5.832,5.832,0,0,1-1.559.2,5.164,5.164,0,0,1-1.126-.1,6.017,6.017,0,0,0,5.555,4.218,11.808,11.808,0,0,1-7.371,2.583A10.937,10.937,0,0,1,0,69.282,16.517,16.517,0,0,0,9.12,72c10.94,0,16.922-9.231,16.922-17.232,0-.268-.009-.526-.022-.783A11.985,11.985,0,0,0,29,50.841Z" transform="translate(0 -48)" fill="#03a9f4"/></svg>