<svg xmlns="http://www.w3.org/2000/svg" xmlns:xlink="http://www.w3.org/1999/xlink" width="100" height="100" viewBox="0 0 100 100"><defs><style>.a{fill:url(#a);}.b{fill:#fff;stroke:#fff;stroke-width:2px;fill-rule:evenodd;}</style><linearGradient id="a" x1="0.303" y1="0.871" x2="0.727" y2="0.05" gradientUnits="objectBoundingBox"><stop offset="0" stop-color="#fec053"/><stop offset="0.327" stop-color="#f2203e"/><stop offset="0.649" stop-color="#b729a8"/><stop offset="1" stop-color="#5342d6"/></linearGradient></defs><g transform="translate(-1429 -2220)"><circle class="a" cx="50" cy="50" r="50" transform="translate(1429 2220)"/><g transform="translate(1373.14 2164.14)"><path class="b" d="M125.209,105.858a19.35,19.35,0,1,0-19.35,19.35,19.347,19.347,0,0,0,19.35-19.35Zm-.366-21.979a3.114,3.114,0,1,0,3.114,3.114,3.112,3.112,0,0,0-3.114-3.114ZM90.042,79.4h31.635A10.661,10.661,0,0,1,132.313,90.04v31.635a10.654,10.654,0,0,1-10.636,10.638H90.042A10.664,10.664,0,0,1,79.4,121.675V90.042A10.671,10.671,0,0,1,90.042,79.4Zm31.635-3.544H90.042A14.227,14.227,0,0,0,75.86,90.042v31.635A14.22,14.22,0,0,0,90.042,135.86h31.635a14.21,14.21,0,0,0,14.182-14.183V90.042A14.218,14.218,0,0,0,121.677,75.86Zm-31.151,30a15.334,15.334,0,1,1,15.334,15.333,15.339,15.339,0,0,1-15.334-15.333Z" transform="translate(0 0)"/></g></g></svg>