<svg xmlns="http://www.w3.org/2000/svg" xmlns:xlink="http://www.w3.org/1999/xlink" width="100" height="100" viewBox="0 0 100 100"><defs><linearGradient id="a" x1="0.5" x2="0.5" y2="1" gradientUnits="objectBoundingBox"><stop offset="0" stop-color="#fdfafa"/><stop offset="1" stop-color="#e3e3e3"/></linearGradient><linearGradient id="b" x1="0.5" x2="0.5" y2="1" gradientUnits="objectBoundingBox"><stop offset="0" stop-color="#92e2a1"/><stop offset="1" stop-color="#00af21"/></linearGradient><linearGradient id="c" x1="0.5" x2="0.5" y2="1" gradientUnits="objectBoundingBox"><stop offset="0" stop-color="#3b3a3a"/><stop offset="1" stop-color="#694b4b"/></linearGradient><linearGradient id="d" x1="0.886" y1="0.031" x2="0.351" y2="0.621" gradientUnits="objectBoundingBox"><stop offset="0" stop-color="#906c6c"/><stop offset="1" stop-color="#694b4b"/></linearGradient><linearGradient id="e" x1="0.5" x2="0.5" y2="0.553" gradientUnits="objectBoundingBox"><stop offset="0" stop-color="#c6883f"/><stop offset="1" stop-color="#f0c087"/></linearGradient><linearGradient id="f" x1="0.013" y1="0.033" x2="0.904" y2="0.937" gradientUnits="objectBoundingBox"><stop offset="0" stop-color="#ffb762"/><stop offset="1" stop-color="#f0c087"/></linearGradient><linearGradient id="h" x1="0.5" y1="0" x2="0.5" y2="1" xlink:href="#d"/><linearGradient id="i" x2="0.5" y2="0.249" xlink:href="#e"/><linearGradient id="j" x1="0.5" x2="0.5" y2="1" gradientUnits="objectBoundingBox"><stop offset="0" stop-color="#eb97fa"/><stop offset="1" stop-color="#b141c6"/></linearGradient><linearGradient id="k" x1="0.251" y1="0.103" x2="0.812" y2="0.892" xlink:href="#f"/><linearGradient id="l" x1="0.5" x2="0.5" y2="1" gradientUnits="objectBoundingBox"><stop offset="0" stop-color="#e9a3f7"/><stop offset="1" stop-color="#9745a7"/></linearGradient><linearGradient id="m" x1="0.5" x2="0.5" y2="1" gradientUnits="objectBoundingBox"><stop offset="0" stop-color="#69cdff"/><stop offset="1" stop-color="#4883f0"/></linearGradient><linearGradient id="n" x1="0.5" x2="0.5" y2="1" gradientUnits="objectBoundingBox"><stop offset="0" stop-color="#739ff2"/><stop offset="1" stop-color="#3667c3"/></linearGradient></defs><g transform="translate(-910 -490)"><g transform="translate(650 -1918)"><circle cx="50" cy="50" r="50" transform="translate(260 2408)" fill="url(#a)"/></g><g transform="translate(-3264 -3806)"><g transform="translate(4231.714 4337.333)"><path d="M141.708,328.806l-6.961-2.614-4.992,1.719-4.992-1.719-6.961,2.614a3.434,3.434,0,0,0-2.191,3.23v5.326a.846.846,0,0,0,.832.859h26.622a.846.846,0,0,0,.832-.859v-5.326A3.433,3.433,0,0,0,141.708,328.806Z" transform="translate(-115.613 -299.555)" fill="url(#b)"/><path d="M350.935,359.855a3.5,3.5,0,0,1,.9,2.342v5.326a.846.846,0,0,1-.832.859h-4.16v-2.873a3.5,3.5,0,0,1,.975-2.43Z" transform="translate(-323.545 -329.715)" fill="#008b1a"/><path d="M183.463,79.11v-7.2a1.692,1.692,0,0,0-1.664-1.719h-9.983a6.768,6.768,0,0,0-6.655,6.874V79.11a8.849,8.849,0,0,0,.427,2.717l.277.858a2.654,2.654,0,0,1,.128.815v.441h16.639V83.5a2.654,2.654,0,0,1,.128-.815l.277-.858A8.848,8.848,0,0,0,183.463,79.11Z" transform="translate(-160.17 -70.193)" fill="url(#c)"/><path d="M206.452,73.684a3.437,3.437,0,0,0,3.38,3.491h.468l.226,6.767h9.237V83.5a2.655,2.655,0,0,1,.128-.815l.277-.858a8.849,8.849,0,0,0,.427-2.717v-7.2a1.692,1.692,0,0,0-1.664-1.719h-9.1A3.437,3.437,0,0,0,206.452,73.684Z" transform="translate(-197.301 -70.193)" fill="url(#d)"/><rect width="9.983" height="7.733" transform="translate(9.15 20.622)" fill="url(#e)"/><g transform="translate(7.486 25.207)"><path d="M196.591,315.592l-2.653,2.741a.815.815,0,0,1-1.251-.088l-2.751-3.744.72-1.566a.819.819,0,0,1,1.188-.363Z" transform="translate(-189.936 -312.443)" fill="#008b1a"/><path d="M256,315.592l2.653,2.741a.815.815,0,0,0,1.251-.088l2.751-3.744-.72-1.566a.819.819,0,0,0-1.188-.363Z" transform="translate(-249.345 -312.443)" fill="#008b1a"/></g><path d="M181.738,153.378h0a8.459,8.459,0,0,1-8.319-8.593v-1.007a1.748,1.748,0,0,1,.487-1.215l.689-.712a1.748,1.748,0,0,0,.487-1.215v-2.06a.847.847,0,0,1,.634-.835c1.968-.48,8.09-1.617,12.257,1.548a1.116,1.116,0,0,1,.42.89v.456a1.748,1.748,0,0,0,.487,1.215l.689.712a1.748,1.748,0,0,1,.487,1.215v1.007A8.459,8.459,0,0,1,181.738,153.378Z" transform="translate(-167.597 -130.179)" fill="url(#f)"/><path d="M116.509,359.855a3.5,3.5,0,0,0-.9,2.342v5.326a.846.846,0,0,0,.832.859h4.16v-2.873a3.5,3.5,0,0,0-.975-2.43Z" transform="translate(-115.613 -329.715)" fill="#008b1a"/></g><path d="M24.844,217.607A49.506,49.506,0,0,1,22.677,206.7c-.36-5.142-4.111-9.333-9.182-9.333s-8.823,4.192-9.182,9.333a49.508,49.508,0,0,1-2.167,10.911,1.345,1.345,0,0,0,.672,1.7,24.083,24.083,0,0,0,6.742,2.06H17.43a24.294,24.294,0,0,0,6.742-2.06A1.345,1.345,0,0,0,24.844,217.607Z" transform="translate(4188.264 4139.17)" fill="url(#c)"/><path d="M65.121,219.3a1.345,1.345,0,0,0,.672-1.7A49.5,49.5,0,0,1,63.626,206.7c-.359-5.142-4.111-9.333-9.182-9.333h-.038c-3.891.016-5.266,5.5-1.917,7.543a3.522,3.522,0,0,0,.33.182l2.934,16.275h2.626A24.312,24.312,0,0,0,65.121,219.3Z" transform="translate(4147.313 4139.169)" fill="url(#h)"/><path d="M21.1,318.221l-4.177-2.157a2.677,2.677,0,0,1-1.427-2.385v-4H7.745v4a2.677,2.677,0,0,1-1.427,2.385l-4.177,2.157A4.015,4.015,0,0,0,0,321.8v7.88a1.313,1.313,0,0,0,1.291,1.333H21.945a1.313,1.313,0,0,0,1.291-1.333V321.8A4.015,4.015,0,0,0,21.1,318.221Z" transform="translate(4190 4044.988)" fill="url(#i)"/><path d="M21.1,354.605l-2.976-1.537a7.6,7.6,0,0,1-13,0l-2.976,1.537A4.015,4.015,0,0,0,0,358.183v7.879A1.313,1.313,0,0,0,1.291,367.4H21.945a1.313,1.313,0,0,0,1.291-1.333v-7.879A4.015,4.015,0,0,0,21.1,354.605Z" transform="translate(4190 4008.604)" fill="url(#j)"/><path d="M32.805,258.082h0a7.837,7.837,0,0,1-7.681-6.964,1.357,1.357,0,0,1,.69-1.386,10.757,10.757,0,0,0,2.285-1.594,7.685,7.685,0,0,0,1.766-2.4,1.266,1.266,0,0,1,1.455-.731,22.025,22.025,0,0,1,8.762,4.637,1.31,1.31,0,0,1,.444,1.072A7.853,7.853,0,0,1,32.805,258.082Z" transform="translate(4168.813 4099.252)" fill="url(#k)"/><path d="M.787,369.859a4.078,4.078,0,0,0-.787,2.4v7.879a1.313,1.313,0,0,0,1.291,1.333H5.164v-6.718a2.7,2.7,0,0,0-.969-2.082Z" transform="translate(4190 3994.524)" fill="url(#l)"/><path d="M156.1,330.249l-10.8-4.057-7.745,2.667-7.745-2.667-10.8,4.057a5.328,5.328,0,0,0-3.4,5.012v8.264a1.313,1.313,0,0,0,1.291,1.333h41.309a1.313,1.313,0,0,0,1.291-1.333v-8.264A5.328,5.328,0,0,0,156.1,330.249Z" transform="translate(4085.913 4031.141)" fill="url(#m)"/><path d="M353.195,359.855a5.423,5.423,0,0,1,1.39,3.634v8.264a1.313,1.313,0,0,1-1.291,1.333h-6.454v-4.458a5.423,5.423,0,0,1,1.512-3.771Z" transform="translate(3890.832 4002.913)" fill="url(#n)"/><path d="M193.561,84.029V72.86a2.625,2.625,0,0,0-2.582-2.667H175.488A10.5,10.5,0,0,0,165.161,80.86v3.17a13.732,13.732,0,0,0,.662,4.216l.43,1.332a4.119,4.119,0,0,1,.2,1.265v.684H192.27v-.684a4.119,4.119,0,0,1,.2-1.265l.43-1.332A13.729,13.729,0,0,0,193.561,84.029Z" transform="translate(4044.11 4245.807)" fill="url(#c)"/><path d="M206.452,75.61a5.333,5.333,0,0,0,5.244,5.417h.726l.35,10.5h14.333v-.684a4.119,4.119,0,0,1,.2-1.265l.43-1.332a13.731,13.731,0,0,0,.662-4.216V72.86a2.625,2.625,0,0,0-2.582-2.667H211.7A5.333,5.333,0,0,0,206.452,75.61Z" transform="translate(4009.274 4245.807)" fill="url(#d)"/><rect width="15.491" height="12" transform="translate(4215.725 4348)" fill="url(#e)"/><g transform="translate(4213.143 4355.113)"><path d="M200.263,317.33l-4.117,4.253a1.265,1.265,0,0,1-1.941-.137l-4.269-5.81,1.117-2.43a1.271,1.271,0,0,1,1.843-.563Z" transform="translate(-189.936 -312.443)" fill="url(#n)"/><path d="M256,317.33l4.117,4.253a1.265,1.265,0,0,0,1.941-.137l4.269-5.81-1.117-2.43a1.271,1.271,0,0,0-1.843-.563Z" transform="translate(-245.673 -312.443)" fill="url(#n)"/></g><path d="M186.328,162.335h0A13.126,13.126,0,0,1,173.419,149v-1.562a2.712,2.712,0,0,1,.756-1.886l1.069-1.1a2.712,2.712,0,0,0,.756-1.886v-3.2a1.315,1.315,0,0,1,.983-1.3c3.053-.745,12.554-2.509,19.019,2.4a1.731,1.731,0,0,1,.652,1.381v.708a2.712,2.712,0,0,0,.756,1.886l1.069,1.1a2.712,2.712,0,0,1,.756,1.886V149A13.126,13.126,0,0,1,186.328,162.335Z" transform="translate(4037.141 4189.664)" fill="url(#f)"/><path d="M117,359.855a5.423,5.423,0,0,0-1.39,3.634v8.264a1.313,1.313,0,0,0,1.291,1.333h6.454v-4.458a5.423,5.423,0,0,0-1.512-3.771Z" transform="translate(4085.913 4002.913)" fill="url(#n)"/></g></g></svg>